<svg xmlns="http://www.w3.org/2000/svg" version="1.1" viewBox="155 230 705 624.1">
<path d="M0 0 C0.00173625 0.62432647 0.0034725 1.24865294 0.00526136 1.89189839 C0.10975699 39.43345063 0.21813229 76.97498998 0.33111694 114.51651765 C0.344876 119.08929945 0.35860466 123.66208134 0.37231445 128.23486328 C0.37504276 129.14469466 0.37777106 130.05452604 0.38058204 130.99192807 C0.41857302 143.68199496 0.4549368 156.37206557 0.48995335 169.062141 C0.60996062 212.52382118 0.75219827 255.98531916 0.94253838 299.44675303 C0.97458298 306.79948514 1.00504315 314.15221576 1.03037262 321.50497437 C1.03390015 322.52883753 1.03390015 322.52883753 1.03749894 323.57338481 C1.04216546 324.93113507 1.0468301 326.28888534 1.05149279 327.64663562 C1.09168622 339.3042534 1.14503083 350.96167338 1.22371751 362.61909938 C1.25960282 367.94815246 1.28986814 373.27704655 1.30297661 378.6062088 C1.31501103 383.39461796 1.34522905 388.18254601 1.39045978 392.97075367 C1.40343102 394.66619758 1.4099603 396.36170717 1.40900922 398.05720043 C1.40811543 405.3086234 1.45113647 412.13491216 3.78684998 419.08892822 C6.99208428 429.09801215 8.27220428 439.63322567 10 450 C10 302.16 10 154.32 10 2 C15 0 15 0 17.12605286 0.43370056 C18.18284492 0.91499168 18.18284492 0.91499168 19.26098633 1.40600586 C20.06985794 1.76395737 20.87872955 2.12190887 21.71211243 2.4907074 C22.57668564 2.89467239 23.44125885 3.29863739 24.33203125 3.71484375 C25.24143967 4.12279678 26.15084808 4.53074982 27.08781433 4.95106506 C30.00376879 6.26351803 32.90803117 7.59984909 35.8125 8.9375 C37.72517334 9.80436482 39.6385787 10.66961644 41.55273438 11.53320312 C45.28498035 13.21861067 49.01229104 14.91430672 52.73681641 16.61669922 C58.21032972 19.10970655 63.72156974 21.51301484 69.26460266 23.84739685 C71.96258597 25.00330705 73.90249 25.90249 76 28 C76.25480902 30.09506142 76.25480902 30.09506142 76.26171303 32.74389839 C76.26917852 33.75109841 76.27664401 34.75829844 76.28433573 35.79601967 C76.28143363 37.46817081 76.28143363 37.46817081 76.2784729 39.17410278 C76.2842653 40.35187471 76.2900577 41.52964664 76.29602563 42.74310863 C76.31013548 46.02227604 76.3152595 49.3013192 76.31667423 52.58051229 C76.32035814 56.11291415 76.33550849 59.64526853 76.34928894 63.17764282 C76.37159746 69.30105216 76.38658909 75.42444468 76.39665604 81.54788589 C76.41122177 90.40142273 76.43675259 99.254901 76.46498732 108.10840355 C76.5104937 122.47150486 76.54709257 136.83461457 76.578125 151.19775391 C76.60829482 165.15284707 76.64263785 179.10791963 76.68261719 193.06298828 C76.68630951 194.3525822 76.68630951 194.3525822 76.69007643 195.66822852 C76.70245072 199.98109997 76.71490731 204.29397118 76.72740483 208.60684228 C76.83103019 244.40453312 76.92021441 280.20224849 77 316 C80.60635963 312.62275858 83.33159516 309.7457674 83.73828697 304.67160892 C83.76327882 303.02466604 83.75565185 301.37701883 83.7215271 299.73023987 C83.72665365 298.81771027 83.7317802 297.90518067 83.7370621 296.96499866 C83.74691746 293.9180772 83.71399257 290.87315371 83.68115234 287.82641602 C83.67945932 285.63821967 83.68041102 283.45001992 83.68380737 281.26182556 C83.68552832 275.32824585 83.65026119 269.39539443 83.60836363 263.46198392 C83.57084674 257.25870538 83.56733048 251.05541001 83.56021118 244.85203552 C83.54262508 233.77568362 83.49930046 222.69963289 83.44235487 211.62341838 C83.39094386 201.57033259 83.35348776 191.51730042 83.32958984 181.46411133 C83.3280135 180.80283737 83.32643716 180.14156342 83.32481305 179.46025086 C83.31698257 176.14268194 83.30941392 172.82511248 83.30194163 169.50754273 C83.23923232 142.00484264 83.13370181 114.50244011 83 87 C86.93546775 87.73009676 90.25376359 88.84494965 93.921875 90.46875 C95.02917969 90.95730469 96.13648438 91.44585937 97.27734375 91.94921875 C98.42332031 92.46097656 99.56929687 92.97273438 100.75 93.5 C101.91144531 94.01175781 103.07289063 94.52351563 104.26953125 95.05078125 C112.85770089 98.85770089 112.85770089 98.85770089 114 100 C114.10683661 102.01632727 114.14245711 104.03643702 114.15148926 106.05557251 C114.15983292 107.37312027 114.16817657 108.69066803 114.17677307 110.04814148 C114.18108338 111.52249121 114.18530712 112.9968412 114.18945312 114.47119141 C114.19739128 116.013486 114.20577889 117.55577835 114.21458435 119.09806824 C114.23268764 122.42983981 114.24768777 125.76160625 114.26036072 129.09340286 C114.28057041 134.37361045 114.30823238 139.65376271 114.33703613 144.93392944 C114.39722472 156.16426016 114.44887702 167.39462497 114.5 178.625 C114.55514565 190.70105716 114.61200031 202.77709724 114.67754889 214.85310304 C114.70569194 220.08827217 114.72936383 225.32343579 114.74947357 230.55864167 C114.7630062 233.8403947 114.78041065 237.1221195 114.79878426 240.40384865 C114.80644286 241.91012024 114.81255365 243.41640076 114.81687737 244.92268562 C114.84586546 254.65501498 115.24044656 264.29897195 116 274 C116.77657959 273.1946582 116.77657959 273.1946582 117.56884766 272.37304688 C121.2734375 268.53125 121.2734375 268.53125 123 267 C123.66 267 124.32 267 125 267 C125 238.62 125 210.24 125 181 C129.27067333 181.85413467 131.90598093 182.77069061 135.703125 184.6875 C136.7653125 185.22117187 137.8275 185.75484375 138.921875 186.3046875 C140.02015625 186.86414063 141.1184375 187.42359375 142.25 188 C143.36375 188.55945313 144.4775 189.11890625 145.625 189.6953125 C153.8458282 193.8458282 153.8458282 193.8458282 155 195 C155.12232644 196.47250645 155.1777456 197.95065711 155.20532227 199.42797852 C155.22526749 200.36887833 155.24521271 201.30977814 155.26576233 202.27919006 C155.29083107 203.81354958 155.29083107 203.81354958 155.31640625 205.37890625 C155.33718735 206.42070541 155.35796844 207.46250458 155.37937927 208.53587341 C155.44499057 211.87801247 155.50381331 215.22023285 155.5625 218.5625 C155.60567422 220.82227418 155.64928814 223.08204001 155.69335938 225.34179688 C155.80068367 230.89444421 155.90242812 236.44717321 156 242 C156.99233391 241.40007233 156.99233391 241.40007233 158.00471497 240.7880249 C184.62255374 224.74641293 212.4877256 213.37998706 242 204 C247.31147125 242.06985022 248.92538682 278.15989987 241 316 C241.56468994 315.74943848 242.12937988 315.49887695 242.71118164 315.24072266 C269.16196135 303.61197791 296.51766035 294.33715312 325.16088867 290.07910156 C331.07324972 289.19246231 336.82408112 287.99274418 342.62890625 286.55078125 C345 286 345 286 347 286 C349.49363765 340.80461422 324.75225761 391.79966696 289 432 C288.53787109 432.524729 288.07574219 433.04945801 287.59960938 433.59008789 C275.51223906 447.08988981 259.96342739 457.57733502 244 466 C244.64735107 465.88406494 245.29470215 465.76812988 245.96166992 465.64868164 C260.67886623 463.05198736 275.05834284 461.27628569 290 461 C291.29035156 460.96003906 292.58070313 460.92007812 293.91015625 460.87890625 C297.9467328 460.80674873 301.96609747 460.87046719 306 461 C307.3619751 461.03552979 307.3619751 461.03552979 308.75146484 461.07177734 C329.1651208 461.72408719 348.28420823 466.02480941 368 471 C367.40573168 474.61985349 366.42049727 477.53439037 364.77734375 480.80859375 C364.32552734 481.71359619 363.87371094 482.61859863 363.40820312 483.55102539 C362.92287109 484.50356201 362.43753906 485.45609863 361.9375 486.4375 C361.18823242 487.91367798 361.18823242 487.91367798 360.42382812 489.41967773 C358.96002351 492.28551216 357.48302509 495.14407287 356 498 C355.62891113 498.7209082 355.25782227 499.44181641 354.87548828 500.18457031 C350.30493338 508.97633834 344.79655056 516.18902873 338.26367188 523.54199219 C336.49647646 525.58095877 334.88099704 527.72633868 333.25 529.875 C325.1720769 540.0428991 315.5208988 549.14693925 305.328125 557.1640625 C303.38887527 558.69333661 301.57086049 560.27297602 299.75 561.9375 C294.54602487 566.43184216 288.64151562 570.05494837 282.87841797 573.78027344 C281.21252492 574.86199967 279.56027392 575.96467108 277.91015625 577.0703125 C267.85848656 583.59531227 256.9970354 588.30814507 246 593 C245.26168945 593.32355469 244.52337891 593.64710938 243.76269531 593.98046875 C232.12229507 599.01712752 219.92692351 601.8951238 207.625 604.8125 C206.80330322 605.00772247 205.98160645 605.20294495 205.13500977 605.40408325 C197.38642137 607.23109705 189.69844025 608.97255253 181.8046875 610.0546875 C176.75359062 610.77428383 173.04173181 612.00583215 168.5 614.3125 C154.59457743 620.89700991 139.32569077 623.78437881 124 624 C122.02773438 624.04060547 122.02773438 624.04060547 120.015625 624.08203125 C116.00721494 624.14073786 112.00807322 624.07692262 108 624 C106.39511719 624.00966797 106.39511719 624.00966797 104.7578125 624.01953125 C86.06649294 623.53968075 52.75900243 615.75900243 39 602 C37.38973984 601.35757913 35.7620277 600.75827375 34.125 600.1875 C29.85894404 598.51683358 27.20413299 597.20789025 25 593 C24.3268811 589.04542648 24.78113259 587.39083465 26.75 583.875 C29 581 29 581 31.3125 578.875 C32.1478125 577.946875 32.1478125 577.946875 33 577 C32.8237956 574.96128755 32.8237956 574.96128755 32 573 C32 571.68 32 570.36 32 569 C28.04 573.29 24.08 577.58 20 582 C17.58808847 579.58808847 17.58863466 578.53242518 17.1484375 575.2109375 C17.03161621 574.36321777 16.91479492 573.51549805 16.79443359 572.64208984 C16.58681396 571.02488037 16.58681396 571.02488037 16.375 569.375 C15.694375 564.239375 15.694375 564.239375 15 559 C13.515 570.385 13.515 570.385 12 582 C8.23920924 580.11960462 6.93840188 579.04858907 4.375 575.9375 C2.04514448 573.02124288 2.04514448 573.02124288 -1 571 C-0.835 571.61875 -0.67 572.2375 -0.5 572.875 C0 575 0 575 0 577 C0.96863301 578.25403381 1.97465401 579.47939558 3 580.6875 C5.25949857 583.64305263 5.98439105 584.90790717 6.625 588.6875 C5.87816193 592.64574177 4.77771528 594.11191193 2 597 C-1.0234375 598.44140625 -1.0234375 598.44140625 -4.375 599.5625 C-7.87736812 600.74772762 -10.75483282 601.8347492 -13.828125 603.90625 C-17.81865903 606.54039562 -21.93435765 608.2042033 -26.375 609.9375 C-27.69467773 610.45799927 -27.69467773 610.45799927 -29.04101562 610.98901367 C-36.92083129 614.05219943 -44.87037174 616.68854894 -53 619 C-54.07894531 619.30808594 -55.15789062 619.61617187 -56.26953125 619.93359375 C-70.01942979 623.62259092 -83.86904849 623.23368305 -98 623 C-99.19109375 622.98324219 -100.3821875 622.96648438 -101.609375 622.94921875 C-115.67521524 622.31151874 -129.74753244 618.34015597 -142.2097168 611.85522461 C-148.14479898 608.91348823 -154.27159152 607.87726342 -160.73583984 606.75976562 C-180.62651955 603.30475541 -200.520713 598.15632396 -219 590 C-219.85948242 589.62649414 -220.71896484 589.25298828 -221.60449219 588.86816406 C-234.82723985 583.05750913 -247.0628821 576.11931319 -259 568 C-260.08539063 567.26265625 -261.17078125 566.5253125 -262.2890625 565.765625 C-269.85763665 560.33910014 -276.52016597 553.99987925 -283.234375 547.57421875 C-286.20850459 544.72981815 -289.25927265 542.00201937 -292.375 539.3125 C-297.88337111 534.39464103 -302.37901481 528.73741521 -307 523 C-307.77472656 522.1028125 -308.54945313 521.205625 -309.34765625 520.28125 C-318.63581968 509.44771461 -324.62366947 496.91492724 -331 484.25 C-331.88316895 482.49804321 -331.88316895 482.49804321 -332.78417969 480.71069336 C-333.32977539 479.6150708 -333.87537109 478.51944824 -334.4375 477.390625 C-334.93121094 476.40094727 -335.42492187 475.41126953 -335.93359375 474.39160156 C-337 472 -337 472 -337 470 C-316.70908686 464.90869677 -297.01593155 460.53962305 -276 460 C-275.14067871 459.97502441 -274.28135742 459.95004883 -273.39599609 459.92431641 C-267.92366329 459.78952988 -262.47119999 459.85496923 -257 460 C-256.18289551 460.01401855 -255.36579102 460.02803711 -254.52392578 460.04248047 C-240.39555228 460.30476798 -226.8523987 462.26299578 -213 465 C-213.51272461 464.68361572 -214.02544922 464.36723145 -214.55371094 464.04125977 C-220.40650353 460.41832087 -226.21763678 456.73429214 -232 453 C-233.05445313 452.319375 -234.10890625 451.63875 -235.1953125 450.9375 C-278.84952029 420.39228172 -304.88750758 367.55503725 -314.375 316.375 C-316.20975568 305.88338685 -316.41875637 295.62012672 -316 285 C-309.08119004 286.24597213 -302.16765922 287.51925293 -295.26000977 288.82568359 C-291.82473495 289.47476146 -288.38830918 290.11184889 -284.9453125 290.71875 C-258.97516108 295.33390846 -233.96373247 304.07759531 -210 315 C-210.19698486 314.40501709 -210.39396973 313.81003418 -210.59692383 313.19702148 C-212.60944177 306.85515672 -213.8758292 300.66093888 -214.6875 294.0625 C-214.81415039 293.03471436 -214.94080078 292.00692871 -215.07128906 290.94799805 C-216.44581578 278.63746257 -216.32460587 266.36575487 -216 254 C-215.9688208 252.6063623 -215.9688208 252.6063623 -215.93701172 251.18457031 C-214.98481206 212.96962413 -214.98481206 212.96962413 -211 205 C-194.16777524 206.98533933 -177.38463482 215.4678671 -162.0625 222.4375 C-161.37938751 222.74795258 -160.69627502 223.05840515 -159.99246216 223.37826538 C-148.71261066 228.52492623 -148.71261066 228.52492623 -145 231 C-145.07855225 230.01717041 -145.15710449 229.03434082 -145.23803711 228.02172852 C-147.20374143 201.1804621 -147.20374143 201.1804621 -143.75341797 194.63525391 C-140.48976045 191.34173676 -136.50428577 189.99676768 -132.12646484 188.71435547 C-128.51119764 187.49985813 -125.4156835 185.4341123 -122.1875 183.4375 C-116.25730994 180 -116.25730994 180 -114 180 C-113.98906311 181.33304672 -113.98906311 181.33304672 -113.97790527 182.69302368 C-113.90207863 191.08024082 -113.78830708 199.46590765 -113.63219452 207.8520298 C-113.55326867 212.16329537 -113.4888845 216.47374588 -113.45800781 220.78564453 C-113.42765217 224.9493871 -113.35874008 229.11088872 -113.26338196 233.27363205 C-113.23377404 234.85939393 -113.21791899 236.44547585 -113.2162323 238.03151321 C-113.21148022 240.25991062 -113.15729059 242.48214418 -113.09179688 244.70947266 C-113.07403198 245.97522125 -113.05626709 247.24096985 -113.03796387 248.54507446 C-112.00145369 253.23544049 -112.00145369 253.23544049 -104 258 C-103.67 205.86 -103.34 153.72 -103 100 C-78.44444444 87 -78.44444444 87 -74 87 C-74.00921793 88.01029927 -74.01843586 89.02059855 -74.02793312 90.06151295 C-74.25012406 114.66680439 -74.41434904 139.27196544 -74.51812172 163.8780489 C-74.56964217 175.77754223 -74.63985722 187.67637206 -74.75439453 199.57543945 C-74.85420121 209.94913138 -74.91861383 220.3223427 -74.94088495 230.69650143 C-74.95389995 236.18766522 -74.98439094 241.67745436 -75.05730057 247.16817665 C-75.12544313 252.34207019 -75.14606387 257.51403002 -75.13107681 262.6883297 C-75.1338163 264.58179632 -75.15355508 266.47533105 -75.19205475 268.3684082 C-75.24230744 270.96804946 -75.22970306 273.56052533 -75.20254517 276.16035461 C-75.23167358 276.89872112 -75.26080199 277.63708763 -75.29081309 278.39782888 C-75.04773766 287.08550505 -70.65595238 288.67845239 -64 296 C-64 206.9 -64 117.8 -64 26 C-54.99977799 21.499889 -54.99977799 21.499889 -51.21142578 19.95703125 C-50.36339386 19.60987061 -49.51536194 19.26270996 -48.64163208 18.9050293 C-47.30695389 18.36422729 -47.30695389 18.36422729 -45.9453125 17.8125 C-44.53292801 17.23592651 -44.53292801 17.23592651 -43.0920105 16.64770508 C-40.10419723 15.42885867 -37.11462341 14.21439865 -34.125 13 C-32.12618752 12.18517681 -30.12748856 11.37007508 -28.12890625 10.5546875 C-18.78675541 6.74625965 -18.78675541 6.74625965 -14.53912354 5.02880859 C-12.75891998 4.30750115 -10.98089776 3.58079766 -9.20452881 2.85009766 C-7.85587738 2.29974854 -7.85587738 2.29974854 -6.47998047 1.73828125 C-5.66818329 1.40481689 -4.85638611 1.07135254 -4.01998901 0.7277832 C-2 0 -2 0 0 0 Z M-24 35 C-24.45612502 37.38595105 -24.45612502 37.38595105 -24.38031673 40.22130775 C-24.38875668 41.33504285 -24.39719662 42.44877794 -24.40589231 43.59626257 C-24.39988227 44.83008339 -24.39387222 46.0639042 -24.38768005 47.33511353 C-24.39306559 48.6379146 -24.39845113 49.94071568 -24.40399987 51.28299558 C-24.41852672 54.91160657 -24.41418732 58.53999184 -24.40683305 62.16861558 C-24.4021212 66.07744911 -24.41459386 69.98623239 -24.42485046 73.89505005 C-24.44208544 81.5590238 -24.44286844 89.22291573 -24.43763756 96.88690384 C-24.4336018 103.11677386 -24.43503235 109.34661964 -24.44038582 115.57648849 C-24.44113424 116.46202333 -24.44188266 117.34755816 -24.44265376 118.25992738 C-24.4441852 120.05875847 -24.44572355 121.85758956 -24.44726873 123.65642063 C-24.46101184 140.5444227 -24.45554436 157.43237851 -24.44408352 174.32037954 C-24.4341587 189.76989223 -24.44707558 205.21928502 -24.47101771 220.66877921 C-24.49540552 236.52522765 -24.50501678 252.38162024 -24.49836498 268.23808706 C-24.49487083 277.14295839 -24.49711722 286.04773759 -24.51461601 294.95259476 C-24.52933442 302.53689936 -24.52997868 310.12104705 -24.5125451 317.70534857 C-24.50402791 321.57471097 -24.50190263 325.44379303 -24.51719666 329.31314087 C-24.53357941 333.50998305 -24.51890675 337.70614793 -24.50120544 341.90298462 C-24.51081045 343.1234211 -24.52041546 344.34385759 -24.53031152 345.60127699 C-24.4700238 352.53889949 -23.66994382 357.06926213 -20 363 C-19.67 363 -19.34 363 -19 363 C-19 254.1 -19 145.2 -19 33 C-21.32357511 32.81509993 -21.32357511 32.81509993 -24 35 Z M-44 45 C-44.45451808 47.09375803 -44.45451808 47.09375803 -44.38031673 49.56093407 C-44.38875668 50.52734994 -44.39719662 51.49376582 -44.40589231 52.48946702 C-44.39988227 53.55870554 -44.39387222 54.62794406 -44.38768005 55.72958374 C-44.39306559 56.85961433 -44.39845113 57.98964492 -44.40399987 59.15391886 C-44.41838574 62.96649069 -44.41114946 66.7787205 -44.40405273 70.59130859 C-44.40810484 73.31415211 -44.41661145 76.03697778 -44.42485046 78.7598114 C-44.44208119 85.40375951 -44.44286957 92.04761323 -44.43763756 98.6915779 C-44.43360211 104.0905338 -44.43503196 109.48946173 -44.44038582 114.88841629 C-44.44113424 115.65576548 -44.44188266 116.42311467 -44.44265376 117.21371687 C-44.44418519 118.77241989 -44.44572354 120.33112289 -44.44726873 121.8898259 C-44.46100953 136.52057461 -44.45554528 151.15126992 -44.44408352 165.78201742 C-44.43415213 179.17465073 -44.44708734 192.56714586 -44.47101771 205.95975785 C-44.49538624 219.70080568 -44.50502196 233.4417891 -44.49836498 247.18285811 C-44.49486741 254.90159282 -44.49714004 262.62022125 -44.51461601 270.33893967 C-44.5293101 276.91070571 -44.53001039 283.48229067 -44.5125451 290.05405305 C-44.50400875 293.40859206 -44.50410068 296.76254031 -44.51719666 300.11710548 C-44.53030172 303.75052962 -44.51895118 307.383064 -44.50120544 311.01644897 C-44.51561295 312.61361458 -44.51561295 312.61361458 -44.53031152 314.24304616 C-44.52049723 315.21467754 -44.51068294 316.18630891 -44.50057125 317.18738365 C-44.50046391 318.02624088 -44.50035658 318.8650981 -44.50024599 319.72937524 C-44.07116528 322.64671596 -44.07116528 322.64671596 -40 326 C-40 232.61 -40 139.22 -40 43 C-41.46225016 42.90754997 -41.46225016 42.90754997 -44 45 Z " fill="#F1EFEF" transform="translate(492,230)"/>
<path d="M0 0 C7.2507555 10.87613325 5.27781924 29.29699756 5.25 42 C5.24913391 42.74467529 5.24826782 43.48935059 5.24737549 44.2565918 C5.23262581 49.17405468 5.14262666 54.08453897 5 59 C4.9685791 60.12325684 4.9371582 61.24651367 4.90478516 62.40380859 C4.45689924 71.16919158 2.33821507 79.25918351 -0.125 87.625 C-0.32863159 88.3278714 -0.53226318 89.0307428 -0.74206543 89.75491333 C-8.39928741 116.17517461 -18.862424 140.53066676 -35 163 C-35.639375 163.93070313 -36.27875 164.86140625 -36.9375 165.8203125 C-42.22213633 173.37293859 -48.26194041 180.24438505 -54.36010742 187.140625 C-56.06981699 189.07916126 -57.76516982 191.02973223 -59.4609375 192.98046875 C-71.40614765 206.63378624 -83.95532673 220.37482132 -97.82421875 232.10546875 C-100.89673269 234.78081751 -103.84339899 237.58592844 -106.8125 240.375 C-111.76787955 245.01607515 -116.85272949 249.38218359 -122.15625 253.625 C-126.19089911 256.99459705 -129.98514189 260.60249644 -133.81079102 264.20532227 C-137.25143567 267.42784161 -140.74989605 270.49508793 -144.4375 273.4375 C-156.84168808 283.38650166 -168.72343846 294.69218499 -179.0546875 306.77734375 C-181.0067244 309.0076831 -183.02413092 311.16827599 -185.05297852 313.32861328 C-189.62996307 318.21989389 -193.75689361 323.14149393 -197.46484375 328.74609375 C-199.18637446 331.27363374 -201.06641858 333.63209359 -203 336 C-203.02755664 333.87507655 -203.04664147 331.75004295 -203.0625 329.625 C-203.07410156 328.44164062 -203.08570313 327.25828125 -203.09765625 326.0390625 C-203.07269791 323.11546559 -202.84249263 320.26510148 -202.52075195 317.35961914 C-202.00093236 312.30918423 -201.7460956 307.27955959 -201.5703125 302.20703125 C-201.4990675 300.35291912 -201.42710135 298.4988346 -201.35449219 296.64477539 C-201.31755249 295.69168488 -201.28061279 294.73859436 -201.24255371 293.75662231 C-199.9380229 261.08476341 -199.9380229 261.08476341 -197 245 C-196.70633545 243.37094727 -196.70633545 243.37094727 -196.40673828 241.70898438 C-193.04319742 223.4849829 -188.50401928 205.69054047 -183 188 C-182.69368652 187.00838867 -182.38737305 186.01677734 -182.07177734 184.99511719 C-174.78928108 161.80601239 -164.69549497 135.87776611 -149.6875 116.625 C-146.40516521 112.30338124 -143.28163922 107.95889574 -140.37939453 103.37255859 C-134.56064914 94.23085906 -127.59017809 86.69437971 -120 79 C-118.64459519 77.60689652 -117.28920743 76.21377639 -115.93418884 74.82029724 C-105.52162468 64.13231179 -95.16780574 53.71176667 -83 45 C-82.07703125 44.30519531 -81.1540625 43.61039062 -80.203125 42.89453125 C-73.72903174 38.05767255 -67.00510879 33.63112268 -60.15429688 29.34936523 C-58.47739379 28.29902034 -56.8083708 27.23609075 -55.14257812 26.16821289 C-47.42741908 21.29489744 -39.57422653 17.20887245 -31.25 13.4375 C-30.02490754 12.87575039 -28.79997428 12.31365348 -27.57519531 11.7512207 C-18.48080452 7.59309378 -9.30718083 3.65639247 0 0 Z " fill="#882331" transform="translate(719,454)"/>
<path d="M0 0 C7.56361705 2.25581561 14.55448164 5.47181749 21.65380859 8.87988281 C24.2695281 10.12867793 26.89414222 11.35760639 29.51953125 12.5859375 C58.01459209 25.97163597 84.84289107 41.98258362 106.8671875 64.828125 C108.89686013 66.89497112 110.99129295 68.80026505 113.1875 70.6875 C122.58084163 78.7604924 130.4706715 88.00671418 137.75 98 C138.35634277 98.83104248 138.96268555 99.66208496 139.58740234 100.51831055 C141.39728395 103.00814636 143.19891185 105.50379962 145 108 C145.75168457 109.02988037 145.75168457 109.02988037 146.51855469 110.08056641 C167.18697697 138.47997986 179.67649081 170.41579468 189 204 C189.28101563 205.01030273 189.56203125 206.02060547 189.8515625 207.06152344 C191.38817588 212.67622786 192.76763057 218.31094112 194 224 C194.25789307 225.17876709 194.25789307 225.17876709 194.52099609 226.38134766 C199.80374466 251.18407455 202.16880827 276.7288096 202.70556641 302.05078125 C202.95599996 313.75202023 203.85859854 325.35504679 205 337 C202.45205187 334.54689412 200.79586054 332.11995257 199 329.0625 C195.42882008 323.34255929 191.23478184 318.63123928 186.6171875 313.765625 C184.54572588 311.57667749 182.56803815 309.36321184 180.625 307.0625 C175.88472009 301.58586593 170.64822321 296.56710199 165.49658203 291.48193359 C164.14133274 290.13994939 162.79659687 288.78736832 161.453125 287.43359375 C155.13863631 281.16937965 148.56402991 275.18854173 141.625 269.625 C135.89972931 265.01826989 130.57819937 260.03187133 125.22265625 255.0078125 C122.17938059 252.1552359 119.07055866 249.3907379 115.9140625 246.6640625 C111.89170015 243.16706992 107.95678661 239.57075865 104 236 C103.35135986 235.43297363 102.70271973 234.86594727 102.03442383 234.28173828 C94.27258229 227.43079595 86.95884725 220.14496609 79.64086914 212.82617188 C77.44372038 210.63121418 75.23867621 208.44440185 73.03320312 206.2578125 C65.55129567 198.80530237 58.52595218 191.31088239 52 183 C51.0677736 181.91925454 50.12660006 180.8460789 49.171875 179.78515625 C13.05216942 139.17961627 -6.62402373 83.10008737 -4 29 C-3.30676263 19.23238591 -2.19222858 9.55185311 0 0 Z " fill="#942635" transform="translate(294,454)"/>
<path d="M0 0 C0.70629044 0.26078842 1.41258087 0.52157684 2.14027405 0.79026794 C3.33848282 1.23090073 3.33848282 1.23090073 4.56089783 1.68043518 C8.93553637 3.43030109 13.24804681 5.29728689 17.54676819 7.22557068 C18.51388229 7.65576004 19.4809964 8.0859494 20.47741699 8.5291748 C22.5094717 9.43405422 24.54063371 10.34094076 26.57093811 11.2497406 C29.66043828 12.63240457 32.75275404 14.00860435 35.84559631 15.3837738 C37.82948878 16.26816153 39.81321829 17.15291491 41.79676819 18.03807068 C42.71156448 18.44548996 43.62636078 18.85290924 44.56887817 19.27267456 C59.26553525 25.85840024 59.26553525 25.85840024 61.10536194 27.69822693 C61.21213585 29.23973067 61.24929827 30.78610145 61.2591362 32.33126736 C61.26791094 33.33930933 61.27668567 34.34735131 61.28572631 35.38594002 C61.29031678 36.50690592 61.29490726 37.62787183 61.29963684 38.7828064 C61.30825249 39.96335793 61.31686814 41.14390946 61.32574487 42.36023527 C61.34851069 45.65248387 61.36664865 48.94469824 61.38267708 52.2369827 C61.39718686 55.05764225 61.41536866 57.87827354 61.43350849 60.69891172 C61.60500175 87.48689048 61.68922855 114.27554002 61.75742722 141.06395626 C61.76647556 144.55622335 61.77568517 148.04848997 61.78504944 151.54075623 C61.78852931 152.84271486 61.78852931 152.84271486 61.79207948 154.17097569 C61.83076297 168.19786307 61.91122302 182.22419872 62.0081782 196.25079124 C62.1069693 210.6630727 62.16364661 225.07506913 62.18100572 239.48768145 C62.1918776 247.57504944 62.22134558 255.6614141 62.29895782 263.7484417 C62.36512054 270.64466585 62.39327748 277.53975968 62.37339029 284.43629437 C62.36442566 287.94926663 62.37254324 291.45980048 62.43008041 294.97236633 C62.65513744 311.20044316 61.69033933 322.8018238 51.50806093 335.83441556 C49.18333391 338.92335529 47.24829728 342.24281306 45.29286194 345.57322693 C44.62142151 346.70703796 44.62142151 346.70703796 43.93641663 347.86375427 C32.96468924 367.07648972 23.94855677 386.64259369 17.10536194 407.69822693 C16.62170059 409.1177392 16.13753412 410.53707943 15.65296936 411.95628357 C11.77399278 423.51485552 9.30489615 434.97898679 7.41786194 447.01072693 C7.12103738 448.83871058 6.8240792 450.66667253 6.5269928 452.49461365 C4.0748155 467.83881033 2.32464818 483.20803767 1.10536194 498.69822693 C0.77536194 498.69822693 0.44536194 498.69822693 0.10536194 498.69822693 C-0.37447567 494.71914087 -0.85338507 490.73994362 -1.33213806 486.76072693 C-1.46684509 485.64375427 -1.60155212 484.52678162 -1.74034119 483.3759613 C-1.87247009 482.27703552 -2.004599 481.17810974 -2.14073181 480.04588318 C-2.26117859 479.04565125 -2.38162537 478.04541931 -2.50572205 477.01487732 C-2.69823547 475.37313538 -2.69823547 475.37313538 -2.89463806 473.69822693 C-2.97697693 473.06187695 -3.0593158 472.42552696 -3.14414978 471.76989365 C-3.86014793 465.94462021 -4.06381963 460.20096966 -4.09996033 454.3356781 C-4.10984859 453.31075288 -4.11973686 452.28582766 -4.12992477 451.22984409 C-4.16196752 447.73365146 -4.18673487 444.2374502 -4.21104431 440.74119568 C-4.2266621 438.797334 -4.24228534 436.85347236 -4.25816077 434.90961277 C-4.33012761 426.0296616 -4.38761044 417.14963504 -4.44233131 408.2695632 C-4.45708647 405.89403282 -4.47227206 403.51850555 -4.48757935 401.14297867 C-4.96447021 326.80448268 -5.06072054 252.46344424 -5.1176424 178.12360859 C-5.11831721 177.24517624 -5.11899203 176.3667439 -5.11968729 175.46169239 C-5.12036119 174.58290629 -5.1210351 173.70412019 -5.12172943 172.79870421 C-5.12240377 171.91963837 -5.1230781 171.04057253 -5.12377287 170.13486833 C-5.12512986 168.35915753 -5.1264746 166.58344673 -5.12780707 164.80773591 C-5.1379952 151.42782504 -5.15617269 138.04794095 -5.17835999 124.66804504 C-5.20387888 109.22877853 -5.218293 93.78954455 -5.21847671 78.35025609 C-5.2188325 70.30966369 -5.22402985 62.26914268 -5.242239 54.22856903 C-5.25751914 47.47445013 -5.26284845 40.72042116 -5.25459896 33.96628817 C-5.25071726 30.53786592 -5.25173764 27.10962604 -5.26572239 23.68122613 C-5.27829129 19.98352022 -5.27264725 16.28629385 -5.26213074 12.58859253 C-5.27018696 11.5017532 -5.27824319 10.41491388 -5.28654355 9.29514003 C-5.27995388 8.31384191 -5.27336421 7.33254379 -5.26657486 6.32150936 C-5.26717195 5.47065917 -5.26776904 4.61980898 -5.26838422 3.74317545 C-5.14504799 3.06834244 -5.02171175 2.39350942 -4.89463806 1.69822693 C-1.89463806 -0.30177307 -1.89463806 -0.30177307 0 0 Z " fill="#365864" transform="translate(506.89463806152344,230.30177307128906)"/>
<path d="M0 0 C0.7218045 -0.00522675 1.44360901 -0.01045349 2.18728638 -0.01583862 C18.05841805 -0.06825305 34.73917243 1.32972414 49.875 6.375 C40.52212435 33.46608809 14.46372862 60.70560689 -8.125 77.375 C-9.32491946 78.32299129 -10.5226442 79.27376393 -11.71875 80.2265625 C-34.50720136 98.1753872 -63.79662698 109.32780207 -92.0625 115 C-93.11244141 115.21309814 -94.16238281 115.42619629 -95.24414062 115.64575195 C-102.84641986 117.16609026 -110.41217688 118.54747835 -118.125 119.375 C-118.92679688 119.46378418 -119.72859375 119.55256836 -120.5546875 119.64404297 C-152.35947581 123.06075302 -183.82753611 120.89543216 -215.61444092 118.55853271 C-217.89264403 118.39198623 -220.17105885 118.22917241 -222.44970703 118.06884766 C-235.386295 117.15725905 -248.26438901 116.05870116 -261.125 114.375 C-256.99377437 110.00653567 -252.45731338 106.39883916 -247.6875 102.75 C-246.07006566 101.50292425 -244.45288079 100.25552487 -242.8359375 99.0078125 C-241.63855957 98.08597168 -241.63855957 98.08597168 -240.41699219 97.14550781 C-237.77428205 95.10407898 -235.14700964 93.04392671 -232.52514648 90.97583008 C-230.81529875 89.62720748 -229.10127459 88.28403574 -227.38671875 86.94140625 C-225.29140885 85.29883626 -223.215072 83.63918666 -221.14453125 81.96484375 C-172.81717566 43.51552462 -106.36930346 13.19260786 -45.125 3.375 C-44.05016357 3.19251709 -44.05016357 3.19251709 -42.95361328 3.00634766 C-28.78496578 0.60410013 -14.34894704 0.09253646 0 0 Z " fill="#A72838" transform="translate(787.125,705.625)"/>
<path d="M0 0 C0.75658905 0.06221741 1.5131781 0.12443481 2.29269409 0.1885376 C11.37776096 0.96320538 20.00179816 2.40151144 28.8125 4.8125 C30.17268084 5.11085725 31.53580833 5.39631281 32.90234375 5.6640625 C56.83998814 10.47589355 79.47915062 18.84107338 101.80761719 28.51416016 C104.24156258 29.56581124 106.68145845 30.59541451 109.1328125 31.60546875 C130.45918695 40.56438847 151.34287037 51.33593026 170.8125 63.8125 C171.67133789 64.35729004 172.53017578 64.90208008 173.41503906 65.46337891 C183.56017053 71.92993217 193.22932743 78.69132073 202.40844727 86.47412109 C208.71994459 91.81675151 215.29430063 96.76133162 221.95141602 101.66381836 C226.74566933 105.2067184 231.38113781 108.82070993 235.8125 112.8125 C235.8125 113.1425 235.8125 113.4725 235.8125 113.8125 C167.40357065 121.57244299 91.6158493 129.7815072 26.8125 101.8125 C25.32097412 101.17755615 25.32097412 101.17755615 23.79931641 100.52978516 C11.65643399 95.31817504 0.19975016 90.08017187 -10.1875 81.8125 C-10.83154785 81.30396484 -11.4755957 80.79542969 -12.13916016 80.27148438 C-16.87856654 76.51876529 -21.54874467 72.68864664 -26.1875 68.8125 C-26.96996094 68.16410156 -27.75242188 67.51570312 -28.55859375 66.84765625 C-30.48095937 65.21304598 -32.339946 63.53124047 -34.1875 61.8125 C-35.49847656 60.61560547 -35.49847656 60.61560547 -36.8359375 59.39453125 C-50.27694678 46.76928628 -60.42549356 31.07283036 -70.13427734 15.50097656 C-71.07100786 13.99925467 -72.02823591 12.51036239 -72.98828125 11.0234375 C-74.1875 8.8125 -74.1875 8.8125 -74.1875 5.8125 C-52.75420974 -3.86166992 -23.0149023 -1.94352958 0 0 Z " fill="#A72838" transform="translate(253.1875,705.1875)"/>
<path d="M0 0 C0.12933131 38.20620977 0.2568622 76.41242517 0.38218227 114.61864831 C0.39719133 119.19400777 0.41221438 123.76936718 0.42724609 128.34472656 C0.43023671 129.25508256 0.43322732 130.16543857 0.43630856 131.10338111 C0.47806504 143.80546437 0.52056928 156.50754492 0.56369197 169.20962361 C0.63809821 191.12672216 0.71100327 213.04382519 0.78125 234.9609375 C0.78399162 235.81528393 0.78673324 236.66963036 0.78955793 237.54986608 C0.9748231 295.36671935 1.07407449 353.18280561 1 411 C-1.16619353 408.83380647 -1.6337486 407.59002848 -2.59375 404.73046875 C-2.903125 403.83908203 -3.2125 402.94769531 -3.53125 402.02929688 C-4.15116593 400.2107935 -4.76622054 398.39062111 -5.375 396.56835938 C-7.06784978 391.71848127 -8.75384156 387.30352594 -11.40698814 382.9013567 C-20.31876355 367.54581302 -20.39342303 352.61509033 -20.16065621 335.40980637 C-20.11687556 331.33857766 -20.13212655 327.26747381 -20.13967896 323.19607544 C-20.14488561 316.16680088 -20.11390367 309.13846498 -20.05730057 302.1094265 C-19.97552048 291.94718427 -19.94993473 281.78538912 -19.93742065 271.62285355 C-19.91561334 255.12925348 -19.84928076 238.63615208 -19.75439453 222.14282227 C-19.66239823 206.13503488 -19.59171552 190.12738365 -19.54931641 174.11938477 C-19.54668917 173.13023243 -19.54406194 172.1410801 -19.54135509 171.12195345 C-19.52830333 166.15894189 -19.51566658 161.19592938 -19.50323606 156.23291624 C-19.39981527 115.15493089 -19.22390152 74.07749417 -19 33 C-20.32 33.66 -21.64 34.32 -23 35 C-23.33 140.27 -23.66 245.54 -24 354 C-38.21585224 336.23018471 -41.75942579 322.1378699 -41.45410156 299.5456543 C-41.45390721 296.74448267 -41.47184371 293.94349197 -41.4889679 291.14237976 C-41.51624683 285.15574358 -41.50048709 279.17052747 -41.4539566 273.18402672 C-41.38675144 264.5292602 -41.38684278 255.87547643 -41.40240797 247.22050998 C-41.42588689 233.17270283 -41.39630323 219.12554325 -41.33251953 205.07788086 C-41.2707421 191.44663841 -41.2344716 177.81571389 -41.23193359 164.18432617 C-41.23176791 163.34153662 -41.23160222 162.49874707 -41.23143151 161.63041844 C-41.23075563 157.40162549 -41.23057519 153.1728327 -41.23064089 148.9440397 C-41.23054551 113.96236922 -41.14398599 78.98136323 -41 44 C-41.99 44.495 -41.99 44.495 -43 45 C-43.33 136.08 -43.66 227.16 -44 321 C-47.03655042 317.96344958 -49.69360373 315.01337222 -52.375 311.6875 C-55.32581066 307.97018298 -55.32581066 307.97018298 -58.5210743 304.46895123 C-62.66554852 300.16879411 -63.87252054 296.8049347 -63.77294922 290.80200195 C-63.78357612 289.99786519 -63.79420301 289.19372843 -63.80515194 288.36522388 C-63.8334928 285.65562804 -63.81894041 282.94796431 -63.8046875 280.23828125 C-63.81609356 278.25241541 -63.83006649 276.26656296 -63.84635925 274.2807312 C-63.8835403 268.78488221 -63.88277509 263.2895829 -63.8757515 257.79363632 C-63.87448366 251.92068806 -63.907398 246.04791727 -63.93530273 240.17504883 C-63.98886087 227.36213633 -63.99861942 214.5494748 -63.99859244 201.73648316 C-63.9985943 200.61353227 -63.9985943 200.61353227 -63.99859619 199.46789551 C-63.99859129 198.70858166 -63.9985864 197.94926781 -63.99858135 197.16694444 C-63.99910903 188.62012715 -64.0085624 180.07332144 -64.01798058 171.52651012 C-64.0710949 123.0176086 -64.06004156 74.50888747 -64 26 C-59.78546178 23.85981978 -55.59206568 21.74110618 -51.21142578 19.95703125 C-50.36339386 19.60987061 -49.51536194 19.26270996 -48.64163208 18.9050293 C-47.75184662 18.54449463 -46.86206116 18.18395996 -45.9453125 17.8125 C-45.00372284 17.42811768 -44.06213318 17.04373535 -43.0920105 16.64770508 C-40.10419723 15.42885867 -37.11462341 14.21439865 -34.125 13 C-32.12618752 12.18517681 -30.12748856 11.37007508 -28.12890625 10.5546875 C-18.78675541 6.74625965 -18.78675541 6.74625965 -14.53912354 5.02880859 C-12.75891998 4.30750115 -10.98089776 3.58079766 -9.20452881 2.85009766 C-8.30542786 2.48319824 -7.4063269 2.11629883 -6.47998047 1.73828125 C-5.66818329 1.40481689 -4.85638611 1.07135254 -4.01998901 0.7277832 C-2 0 -2 0 0 0 Z " fill="#3F626D" transform="translate(492,230)"/>
<path d="M0 0 C-0.18124552 11.79743566 -2.20787375 22.44877859 -5.38427734 33.78466797 C-5.89468258 35.62107443 -6.36821722 37.46768271 -6.83203125 39.31640625 C-13.58892133 64.31357101 -28.14706014 86.86715698 -44 107 C-44.80566406 108.03125 -45.61132812 109.0625 -46.44140625 110.125 C-54.32300165 119.99412815 -63.10147736 128.18676613 -73 136 C-74.48113281 137.2065625 -74.48113281 137.2065625 -75.9921875 138.4375 C-82.45342441 143.63300763 -89.12643908 147.94860453 -96.33911133 152.0300293 C-102.70733888 155.68925114 -108.58471434 159.88958545 -114.40893555 164.35864258 C-124.33102081 171.81797238 -135.58189206 176.16005517 -147.12069702 180.43554688 C-167.88884923 188.15279456 -187.85073928 196.40007902 -207.03125 207.578125 C-212.26428454 210.61677372 -217.59219966 213.43882372 -222.95507812 216.24023438 C-235.09598898 222.60379498 -246.19000555 229.58521498 -257 238 C-258.22354149 238.94194796 -259.44748442 239.88337474 -260.671875 240.82421875 C-262.83706791 242.49170126 -264.99929013 244.16283309 -267.16015625 245.8359375 C-277.96153317 254.06697301 -277.96153317 254.06697301 -284 255 C-284.07870658 249.5130267 -283.76729746 245.24399333 -280.0625 241 C-278.72831266 239.64667473 -277.37207113 238.3149015 -276 237 C-275.2059375 236.18402344 -274.411875 235.36804688 -273.59375 234.52734375 C-269.3520615 230.18746802 -265.00427646 226.05253791 -260.39453125 222.109375 C-257.02890403 219.14454841 -253.77018769 216.06934466 -250.5 213 C-246.0173117 208.79700079 -241.52071593 204.63160473 -236.8671875 200.6171875 C-230.67057175 195.25024415 -224.6452932 189.68795418 -218.625 184.125 C-218.07642334 183.61839844 -217.52784668 183.11179687 -216.96264648 182.58984375 C-214.26755466 180.09975744 -211.5761481 177.60587161 -208.890625 175.10546875 C-204.21195941 170.76508349 -199.49571692 166.54189629 -194.5 162.5625 C-189.76790247 158.75906807 -185.52247653 154.63982387 -181.28051758 150.31201172 C-177.9171041 146.88638417 -174.44254729 143.68871814 -170.796875 140.5703125 C-165.71733871 136.13123949 -161.20204698 131.19369381 -156.80859375 126.0859375 C-155.58935567 124.67973202 -154.35179243 123.28923441 -153.09765625 121.9140625 C-148.10263016 116.43437051 -143.64957829 110.66662938 -139.26123047 104.69384766 C-137.94668355 102.92839537 -136.60406962 101.18755997 -135.25390625 99.44921875 C-121.41667422 81.55399712 -110.74584023 63.47702657 -102.5234375 42.44921875 C-101.68265598 40.29933665 -100.84153981 38.14958539 -100 36 C-99.46922852 34.62690674 -99.46922852 34.62690674 -98.92773438 33.22607422 C-98.59837891 32.42057129 -98.26902344 31.61506836 -97.9296875 30.78515625 C-97.51952393 29.75660522 -97.51952393 29.75660522 -97.10107422 28.70727539 C-94.6755367 24.9463477 -90.08200141 24.16702055 -86 23 C-84.06336763 22.40303806 -82.12679586 21.80586606 -80.19165039 21.20410156 C-78.80652801 20.77408365 -77.42027669 20.34768645 -76.03295898 19.92480469 C-69.83941278 18.0164087 -63.94947632 15.56346564 -58 13 C-49.54095603 9.45474463 -41.14726364 6.87585884 -32.23828125 4.796875 C-29.13525358 4.15951603 -29.13525358 4.15951603 -27 3 C-23.60305479 2.35854271 -20.17290517 1.91891802 -16.75 1.4375 C-15.80769531 1.29892578 -14.86539062 1.16035156 -13.89453125 1.01757812 C-9.22567672 0.35293754 -4.73021444 -0.18254183 0 0 Z " fill="#B03440" transform="translate(823,534)"/>
<path d="M0 0 C12.15616872 0.83231425 23.8826331 2.63837336 35.75 5.375 C36.62519287 5.5719043 37.50038574 5.76880859 38.40209961 5.97167969 C43.50774718 7.18618373 48.12195714 8.79087947 52.87402344 11.01416016 C56.10335609 12.51163894 59.41539478 13.75906947 62.75 15 C63.43247803 15.25563721 64.11495605 15.51127441 64.81811523 15.7746582 C70.22412132 17.7727623 75.69376822 19.4839163 81.21875 21.125 C84.60901955 22.19160166 87.75804892 23.55146867 91 25 C91.66725098 25.07839111 92.33450195 25.15678223 93.02197266 25.23754883 C95 26 95 26 96.36865234 28.36987305 C96.77035645 29.40668213 97.17206055 30.44349121 97.5859375 31.51171875 C98.03839844 32.65527832 98.49085938 33.79883789 98.95703125 34.97705078 C99.42496094 36.20149902 99.89289063 37.42594727 100.375 38.6875 C100.86919177 39.94069311 101.36528956 41.19313625 101.86328125 42.44482422 C103.56838616 46.74659586 105.25111325 51.05665088 106.91503906 55.37451172 C110.96686851 65.83689531 116.66452987 74.8040629 123 84 C123.41797852 84.6084375 123.83595703 85.216875 124.26660156 85.84375 C130.64999115 95.07622307 137.44012921 104.02485274 144.34594727 112.87133789 C145.4473137 114.2887274 146.53389425 115.71773251 147.60522461 117.15795898 C153.7513841 125.20591704 160.93134633 132.23341086 168.09838867 139.35913086 C170.30424956 141.55428959 172.49923623 143.75991292 174.69335938 145.96679688 C181.43276652 152.71234361 188.16378869 159.21739496 195.65551758 165.12768555 C199.17811408 167.94084733 202.42840529 171.01457042 205.6875 174.125 C206.9717456 175.33820429 208.256892 176.55045578 209.54296875 177.76171875 C210.14157715 178.32552246 210.74018555 178.88932617 211.35693359 179.47021484 C213.94844544 181.88305484 216.62826941 184.18788685 219.3125 186.49609375 C221.11369532 188.10132569 222.80738074 189.78093356 224.5 191.5 C229.08703714 196.1486081 234.03085069 200.3412334 239.0234375 204.546875 C247.8998591 212.04549503 256.43309816 219.8547559 264.80810547 227.90917969 C267.04009561 230.03824669 269.3015356 232.13256155 271.56640625 234.2265625 C273.02456884 235.60818196 274.48163887 236.99095562 275.9375 238.375 C276.61796387 238.99213867 277.29842773 239.60927734 277.99951172 240.24511719 C282.92398629 245.00910721 284.33189607 249.22240888 285 256 C277.37569482 252.52947702 270.81827161 249.23743892 264.73828125 243.375 C258.74467344 238.17654986 251.92772222 233.95040183 245.33129883 229.55908203 C243.82341877 228.55067047 242.32267209 227.53147357 240.83081055 226.49951172 C234.73333832 222.31614608 228.34534079 218.82883197 221.8125 215.375 C208.24729281 208.16809589 208.24729281 208.16809589 202.4296875 204.84375 C185.41858624 195.16414934 167.47605759 187.71334745 149.06640625 181.140625 C132.86876916 175.30871103 119.52310016 168.3146186 105.65234375 157.90136719 C101.38193931 154.8400721 96.86311773 152.24305205 92.3125 149.625 C84.47425072 145.06115929 77.71638395 140.09706715 71 134 C69.64695654 132.83203088 68.2928851 131.66525092 66.9375 130.5 C66.31359375 129.94441406 65.6896875 129.38882813 65.046875 128.81640625 C63.53205088 127.47214439 61.99766228 126.14985773 60.453125 124.83984375 C52.88140695 118.26271578 46.92492587 111.05197831 41 103 C40.50854492 102.34080566 40.01708984 101.68161133 39.51074219 101.00244141 C31.70601412 90.48989932 25.00557853 79.6299676 19 68 C18.59620117 67.22897949 18.19240234 66.45795898 17.77636719 65.66357422 C12.12088242 54.76173448 8.32615609 44.13850031 5.56665039 32.18554688 C4.97217631 29.8926852 4.22907697 27.69430868 3.44140625 25.4609375 C1.99396385 21.24212782 1.27981331 17.17447096 0.8125 12.75 C0.73064453 12.069375 0.64878906 11.38875 0.56445312 10.6875 C0.15183494 7.10916418 -0.09073374 3.60143164 0 0 Z " fill="#B13540" transform="translate(192,533)"/>
<path d="M0 0 C7.2507555 10.87613325 5.27781924 29.29699756 5.25 42 C5.24913391 42.74467529 5.24826782 43.48935059 5.24737549 44.2565918 C5.23262581 49.17405468 5.14262666 54.08453897 5 59 C4.9685791 60.12325684 4.9371582 61.24651367 4.90478516 62.40380859 C4.45689924 71.16919158 2.33821507 79.25918351 -0.125 87.625 C-0.32863159 88.3278714 -0.53226318 89.0307428 -0.74206543 89.75491333 C-8.39928741 116.17517461 -18.862424 140.53066676 -35 163 C-35.639375 163.93070313 -36.27875 164.86140625 -36.9375 165.8203125 C-42.22213633 173.37293859 -48.26194041 180.24438505 -54.36010742 187.140625 C-56.06981699 189.07916126 -57.76516982 191.02973223 -59.4609375 192.98046875 C-71.40614765 206.63378624 -83.95532673 220.37482132 -97.82421875 232.10546875 C-100.89673269 234.78081751 -103.84339899 237.58592844 -106.8125 240.375 C-111.76787955 245.01607515 -116.85272949 249.38218359 -122.15625 253.625 C-126.18096063 256.98629679 -129.96656563 260.58439341 -133.78222656 264.17895508 C-138.32640576 268.43582245 -143.02061337 272.40992693 -147.890625 276.29296875 C-150.0466478 277.97675198 -150.0466478 277.97675198 -152 280 C-152.99 279.67 -153.98 279.34 -155 279 C-154.53851562 278.59652344 -154.07703125 278.19304687 -153.6015625 277.77734375 C-149.02739913 273.51957508 -145.54199212 269.03864851 -142.1875 263.8125 C-136.9753847 255.72029629 -130.9449561 248.60519583 -124.58837891 241.39990234 C-106.83650975 221.20584725 -91.13006227 195.35926775 -85 169 C-84.80664062 168.22011719 -84.61328125 167.44023438 -84.4140625 166.63671875 C-83.17669541 161.44515685 -82.47894834 156.30997068 -82 151 C-81.92023926 150.13181641 -81.84047852 149.26363281 -81.75830078 148.36914062 C-80.99557798 139.34730443 -80.70916695 130.33828541 -80.49731445 121.29052734 C-80.43791864 118.76778105 -80.37268832 116.24523622 -80.30664062 113.72265625 C-80.201633 109.59854414 -80.1160911 105.47438414 -80.04348755 101.34957886 C-80.01534232 99.82892683 -79.98327314 98.30834023 -79.94650269 96.78787231 C-79.75406474 88.59763375 -80.03852843 80.66306836 -81.04296875 72.52734375 C-81.13543381 71.73810516 -81.22789886 70.94886658 -81.32316589 70.13571167 C-81.88915016 65.3007276 -81.88915016 65.3007276 -82.5480957 60.4777832 C-83.30984049 55.17513151 -83.83092099 50.31775899 -83 45 C-79.92557343 41.10419886 -76.40433626 39.16979691 -72 37 C-70.76042946 36.19681118 -69.53110906 35.37719272 -68.3203125 34.53125 C-67.26585937 33.8609375 -66.21140625 33.190625 -65.125 32.5 C-64.07570313 31.8296875 -63.02640625 31.159375 -61.9453125 30.46875 C-61.05875977 29.91465454 -61.05875977 29.91465454 -60.15429688 29.34936523 C-58.47739379 28.29902034 -56.8083708 27.23609075 -55.14257812 26.16821289 C-47.42741908 21.29489744 -39.57422653 17.20887245 -31.25 13.4375 C-30.02490754 12.87575039 -28.79997428 12.31365348 -27.57519531 11.7512207 C-18.48080452 7.59309378 -9.30718083 3.65639247 0 0 Z " fill="#A62A39" transform="translate(719,454)"/>
<path d="M0 0 C3.93546775 0.73009676 7.25376359 1.84494965 10.921875 3.46875 C12.02917969 3.95730469 13.13648438 4.44585937 14.27734375 4.94921875 C15.99630859 5.71685547 15.99630859 5.71685547 17.75 6.5 C19.49216797 7.26763672 19.49216797 7.26763672 21.26953125 8.05078125 C29.85770089 11.85770089 29.85770089 11.85770089 31 13 C31.1203742 15.25377717 31.16922188 17.51137362 31.19186401 19.76824951 C31.20032982 20.48428132 31.20879563 21.20031313 31.21751797 21.93804288 C31.24474589 24.35547988 31.26472145 26.77292239 31.28466797 29.19042969 C31.30242023 30.91643644 31.32054097 32.64243943 31.33900452 34.36843872 C31.39771246 40.05285769 31.44547293 45.73734671 31.4921875 51.421875 C31.50869254 53.37598942 31.52521403 55.33010369 31.54175186 57.28421783 C31.60971242 65.41135409 31.67476265 73.53850496 31.73234367 81.66572189 C31.81507117 93.32644122 31.91481332 104.98672799 32.03843391 116.64708781 C32.12390385 124.83810117 32.19016424 133.02913367 32.24207985 141.22042775 C32.27360921 146.1163198 32.3136035 151.01180456 32.37401962 155.90743256 C32.4304263 160.51369691 32.46307313 165.11951948 32.47743034 169.72610092 C32.48683484 171.41725881 32.50485709 173.10839394 32.53211021 174.79935837 C32.56801036 177.10807651 32.57289621 179.41486735 32.57003784 181.72381592 C32.58072233 183.01579266 32.59140682 184.30776939 32.60241508 185.63889694 C31.83998285 189.89279656 30.25129324 191.2543781 27 194 C25.28128121 195.84454399 23.5734496 197.69927544 21.875 199.5625 C21.40634521 200.07554687 20.93769043 200.58859375 20.45483398 201.1171875 C18.96889083 202.74388338 17.48437187 204.37187031 16 206 C14.02217191 208.16789348 12.04271513 210.33428699 10.0625 212.5 C9.18722656 213.4590625 8.31195312 214.418125 7.41015625 215.40625 C5.31874067 217.65697925 3.17878748 219.83473107 1 222 C0.82733269 200.56254538 0.66105664 179.12504482 0.5 157.6875 C0.49405146 156.89670028 0.48810292 156.10590056 0.48197412 155.29113722 C0.17523196 114.46494189 -0.10281862 73.64014605 -0.0625 32.8125 C-0.06164398 31.93898769 -0.06078796 31.06547539 -0.05990601 30.16549301 C-0.04925678 20.11030184 -0.03053836 10.05515167 0 0 Z " fill="#426A75" transform="translate(575,317)"/>
<path d="M0 0 C-0.33 65.34 -0.66 130.68 -1 198 C-6.1313395 193.601709 -11.12247504 189.14701999 -16.01757812 184.5 C-16.81131836 183.7575 -16.81131836 183.7575 -17.62109375 183 C-18.37845448 182.2798128 -18.37845448 182.2798128 -19.15111542 181.54507637 C-20.93853209 179.93829547 -20.93853209 179.93829547 -23.0480423 178.93806267 C-25.60110101 177.53293808 -27.18305148 176.29605414 -29 174 C-30.19485543 168.86622348 -30.01216127 163.77347058 -29.90820312 158.53955078 C-29.9059452 156.95248021 -29.90721581 155.36540129 -29.91174316 153.77833557 C-29.91403583 149.47850588 -29.86705137 145.18046653 -29.8111515 140.88105249 C-29.76109294 136.38481414 -29.75643796 131.88853334 -29.74694824 127.39205933 C-29.72209702 118.8814069 -29.65646731 110.37157797 -29.57615232 101.86128795 C-29.48668921 92.17100235 -29.44273626 82.48067712 -29.40258884 72.79008126 C-29.31899956 52.85959479 -29.17831348 32.9298493 -29 13 C-26.27937577 11.55199866 -23.55790948 10.10562012 -20.8359375 8.66015625 C-20.07015381 8.25236938 -19.30437012 7.84458252 -18.51538086 7.42443848 C-4.52360364 0 -4.52360364 0 0 0 Z " fill="#49727D" transform="translate(418,317)"/>
<path d="M0 0 C0.70629044 0.26078842 1.41258087 0.52157684 2.14027405 0.79026794 C3.33848282 1.23090073 3.33848282 1.23090073 4.56089783 1.68043518 C8.93553637 3.43030109 13.24804681 5.29728689 17.54676819 7.22557068 C18.51388229 7.65576004 19.4809964 8.0859494 20.47741699 8.5291748 C22.5094717 9.43405422 24.54063371 10.34094076 26.57093811 11.2497406 C29.66043828 12.63240457 32.75275404 14.00860435 35.84559631 15.3837738 C37.82948878 16.26816153 39.81321829 17.15291491 41.79676819 18.03807068 C42.71156448 18.44548996 43.62636078 18.85290924 44.56887817 19.27267456 C59.26553525 25.85840024 59.26553525 25.85840024 61.10536194 27.69822693 C61.2067844 29.2492434 61.23827055 30.80487691 61.24237633 32.35920048 C61.24745087 33.37340944 61.25252541 34.38761841 61.25775373 35.43256098 C61.25825149 36.56034808 61.25874924 37.68813519 61.25926208 38.85009766 C61.26583547 40.63150844 61.26583547 40.63150844 61.27254164 42.44890732 C61.28363564 45.76047449 61.29016322 49.07199421 61.2947228 52.38357317 C61.30066671 55.94953221 61.31227981 59.51547368 61.32301331 63.0814209 C61.34756911 71.7025425 61.36217114 80.32366994 61.37507337 88.94481578 C61.37878364 91.3792681 61.38275703 93.81371983 61.38682604 96.24817157 C61.41206597 111.35946794 61.43412348 126.47076517 61.44655418 141.58207798 C61.449484 145.0847429 61.45244564 148.58740779 61.45545959 152.09007263 C61.45620565 152.96066816 61.4569517 153.83126369 61.45772035 154.7282409 C61.47036954 168.82632875 61.50358427 182.92429035 61.54526143 197.02231921 C61.58768426 211.49106913 61.61124982 225.95975444 61.61647475 240.4285664 C61.61988899 248.55437778 61.63164513 256.67999206 61.66457748 264.80574226 C61.69258434 271.72765929 61.70357475 278.64933886 61.69238202 285.57130814 C61.68719643 289.10253562 61.69007449 292.63326589 61.71484756 296.16442108 C61.74150089 299.99563926 61.72927566 303.82618043 61.71336365 307.6574707 C61.73418678 309.32572878 61.73418678 309.32572878 61.75543058 311.02768904 C61.68645712 317.7636855 60.6532536 322.54139668 56.10536194 327.69822693 C55.77536194 327.69822693 55.44536194 327.69822693 55.10536194 327.69822693 C54.97646613 298.51011887 54.84893368 269.32200508 54.72317967 240.13388331 C54.70816805 236.64987867 54.69314537 233.16587407 54.67811584 229.68186951 C54.67512523 228.98857012 54.67213462 228.29527074 54.66905338 227.58096228 C54.6212634 216.50809175 54.57258796 205.43522529 54.52355653 194.3623602 C54.47287284 182.91166371 54.4232256 171.46096304 54.37439489 160.0102585 C54.34187378 152.39256495 54.30836585 144.77487676 54.27399778 137.15719134 C54.2525954 132.33925231 54.23252621 127.52130809 54.21252728 122.70336306 C54.19732134 119.18964038 54.18006958 115.67593167 54.1627121 112.16221905 C54.10846466 100.17315058 54.107338 88.18621437 54.18454903 76.19737004 C54.20980208 72.06482914 54.22776051 67.93224765 54.24612179 63.79967109 C54.2618639 60.47949875 54.28552017 57.15963956 54.3191061 53.83959424 C54.35607837 50.18376191 54.37517067 46.52823025 54.39064026 42.87225342 C54.40682057 41.78024443 54.42300089 40.68823544 54.43967152 39.56313527 C54.44059394 38.56572154 54.44151636 37.56830782 54.44246674 36.54066944 C54.44978837 35.67295251 54.45710999 34.80523557 54.46465349 33.91122419 C54.02050427 31.17556009 53.27392761 30.37425281 51.10536194 28.69822693 C48.71628914 27.4959103 46.3537464 26.39232631 43.90223694 25.33494568 C42.82996857 24.86324699 42.82996857 24.86324699 41.73603821 24.38201904 C40.21768382 23.71565445 38.69784414 23.0526655 37.176651 22.39280701 C34.9022785 21.40608145 32.63238078 20.40965756 30.36317444 19.41111755 C28.87645323 18.76013748 27.38948082 18.10973074 25.90223694 17.45994568 C25.24535889 17.17221786 24.58848083 16.88449005 23.91169739 16.58804321 C16.70022906 13.46426254 9.4126557 10.62114443 2.10536194 7.69822693 C1.77536194 161.80822693 1.44536194 315.91822693 1.10536194 474.69822693 C1.76536194 474.69822693 2.42536194 474.69822693 3.10536194 474.69822693 C2.44536194 482.61822693 1.78536194 490.53822693 1.10536194 498.69822693 C0.77536194 498.69822693 0.44536194 498.69822693 0.10536194 498.69822693 C-0.37447567 494.71914087 -0.85338507 490.73994362 -1.33213806 486.76072693 C-1.46684509 485.64375427 -1.60155212 484.52678162 -1.74034119 483.3759613 C-1.87247009 482.27703552 -2.004599 481.17810974 -2.14073181 480.04588318 C-2.26117859 479.04565125 -2.38162537 478.04541931 -2.50572205 477.01487732 C-2.69823547 475.37313538 -2.69823547 475.37313538 -2.89463806 473.69822693 C-2.97697693 473.06187695 -3.0593158 472.42552696 -3.14414978 471.76989365 C-3.86014793 465.94462021 -4.06381963 460.20096966 -4.09996033 454.3356781 C-4.10984859 453.31075288 -4.11973686 452.28582766 -4.12992477 451.22984409 C-4.16196752 447.73365146 -4.18673487 444.2374502 -4.21104431 440.74119568 C-4.2266621 438.797334 -4.24228534 436.85347236 -4.25816077 434.90961277 C-4.33012761 426.0296616 -4.38761044 417.14963504 -4.44233131 408.2695632 C-4.45708647 405.89403282 -4.47227206 403.51850555 -4.48757935 401.14297867 C-4.96447021 326.80448268 -5.06072054 252.46344424 -5.1176424 178.12360859 C-5.11831721 177.24517624 -5.11899203 176.3667439 -5.11968729 175.46169239 C-5.12036119 174.58290629 -5.1210351 173.70412019 -5.12172943 172.79870421 C-5.12240377 171.91963837 -5.1230781 171.04057253 -5.12377287 170.13486833 C-5.12512986 168.35915753 -5.1264746 166.58344673 -5.12780707 164.80773591 C-5.1379952 151.42782504 -5.15617269 138.04794095 -5.17835999 124.66804504 C-5.20387888 109.22877853 -5.218293 93.78954455 -5.21847671 78.35025609 C-5.2188325 70.30966369 -5.22402985 62.26914268 -5.242239 54.22856903 C-5.25751914 47.47445013 -5.26284845 40.72042116 -5.25459896 33.96628817 C-5.25071726 30.53786592 -5.25173764 27.10962604 -5.26572239 23.68122613 C-5.27829129 19.98352022 -5.27264725 16.28629385 -5.26213074 12.58859253 C-5.27018696 11.5017532 -5.27824319 10.41491388 -5.28654355 9.29514003 C-5.27995388 8.31384191 -5.27336421 7.33254379 -5.26657486 6.32150936 C-5.26717195 5.47065917 -5.26776904 4.61980898 -5.26838422 3.74317545 C-5.14504799 3.06834244 -5.02171175 2.39350942 -4.89463806 1.69822693 C-1.89463806 -0.30177307 -1.89463806 -0.30177307 0 0 Z " fill="#63838A" transform="translate(506.89463806152344,230.30177307128906)"/>
<path d="M0 0 C0.12933131 38.20620977 0.2568622 76.41242517 0.38218227 114.61864831 C0.39719133 119.19400777 0.41221438 123.76936718 0.42724609 128.34472656 C0.43023671 129.25508256 0.43322732 130.16543857 0.43630856 131.10338111 C0.47806504 143.80546437 0.52056928 156.50754492 0.56369197 169.20962361 C0.63809821 191.12672216 0.71100327 213.04382519 0.78125 234.9609375 C0.78399162 235.81528393 0.78673324 236.66963036 0.78955793 237.54986608 C0.9748231 295.36671935 1.07407449 353.18280561 1 411 C-5.87888918 404.12111082 -6.63426913 391.0855285 -6.64540654 381.96095806 C-6.63115048 380.48801074 -6.61642271 379.01506792 -6.60127258 377.54212952 C-6.60345855 375.93700643 -6.60784669 374.33188513 -6.61421841 372.7267732 C-6.62529842 368.35942181 -6.60553891 363.99269375 -6.58032811 359.62542164 C-6.55859576 354.8996714 -6.5660525 350.1739521 -6.56983948 345.44816589 C-6.57245244 337.27483454 -6.55685736 329.10170382 -6.52865028 320.92842293 C-6.48789515 309.11148298 -6.4749808 297.29463936 -6.46871033 285.47763675 C-6.45778595 266.30217494 -6.42456223 247.1268199 -6.37719727 227.95141602 C-6.33125355 209.33195528 -6.29588521 190.71252361 -6.2746582 172.09301758 C-6.27334459 170.94397814 -6.27203097 169.7949387 -6.27067754 168.61107988 C-6.26415203 162.84628807 -6.25783357 157.08149606 -6.25161803 151.31670392 C-6.19984286 103.54439552 -6.11182827 55.77220299 -6 8 C-6.95140869 8.39268066 -7.90281738 8.78536133 -8.88305664 9.18994141 C-12.489167 10.67805891 -16.09572001 12.16510114 -19.70239258 13.65185547 C-21.24905878 14.28959329 -22.79561242 14.92760419 -24.34204102 15.56591797 C-26.59360032 16.49522584 -28.84557098 17.42353008 -31.09765625 18.3515625 C-31.83940094 18.65773499 -32.58114563 18.96390747 -33.34536743 19.27935791 C-37.01879166 20.79138136 -40.6986084 22.28191954 -44.39794922 23.72949219 C-45.08940536 24.00103119 -45.78086151 24.27257019 -46.49327087 24.55233765 C-48.37843458 25.28990362 -50.26616305 26.02090458 -52.15405273 26.75146484 C-55.06543464 27.82313021 -55.06543464 27.82313021 -57 30 C-57.30682836 32.0850365 -57.30682836 32.0850365 -57.26171303 34.5252552 C-57.26917852 35.48368769 -57.27664401 36.44212017 -57.28433573 37.42959607 C-57.282401 38.48989022 -57.28046626 39.55018437 -57.2784729 40.64260864 C-57.2842653 41.76321084 -57.2900577 42.88381304 -57.29602563 44.03837287 C-57.3131225 47.818742 -57.31591045 51.59898977 -57.31884766 55.37939453 C-57.32703157 58.07917091 -57.33821875 60.77893285 -57.34928894 63.47869873 C-57.37159624 69.30417487 -57.3865886 75.12963333 -57.39665604 80.95514297 C-57.41122247 89.37791413 -57.43675349 97.80062374 -57.46498732 106.22335885 C-57.51049243 119.88765917 -57.54709182 133.55196832 -57.578125 147.21630859 C-57.60829534 160.49236606 -57.64263861 173.76840188 -57.68261719 187.04443359 C-57.68507874 187.86234494 -57.68754028 188.68025628 -57.69007643 189.52295281 C-57.70245073 193.62604727 -57.71490732 197.72914148 -57.72740483 201.83223557 C-57.83102829 235.88812765 -57.92021313 269.94404378 -58 304 C-62.92009544 299.45446968 -62.92009544 299.45446968 -63.63923645 295.36424255 C-63.67140304 293.91952166 -63.67617741 292.47403456 -63.65942383 291.02905273 C-63.6699047 290.22520802 -63.68038557 289.42136332 -63.69118404 288.59315968 C-63.7203265 285.87292809 -63.71353478 283.15395779 -63.70703125 280.43359375 C-63.72031564 278.44487062 -63.73570114 276.45616061 -63.75299072 274.46746826 C-63.79415651 268.95523562 -63.80331417 263.44333384 -63.80708694 257.93096542 C-63.81433599 253.25259188 -63.84015215 248.57440041 -63.86630154 243.89610004 C-63.957355 227.5414941 -63.98129013 211.18705046 -63.99551392 194.83224487 C-64.00001938 189.76780044 -64.00617628 184.70335852 -64.01245117 179.63891602 C-64.07491058 128.42589028 -64.06338858 77.21301652 -64 26 C-59.78546178 23.85981978 -55.59206568 21.74110618 -51.21142578 19.95703125 C-50.36339386 19.60987061 -49.51536194 19.26270996 -48.64163208 18.9050293 C-47.75184662 18.54449463 -46.86206116 18.18395996 -45.9453125 17.8125 C-45.00372284 17.42811768 -44.06213318 17.04373535 -43.0920105 16.64770508 C-40.10419723 15.42885867 -37.11462341 14.21439865 -34.125 13 C-32.12618752 12.18517681 -30.12748856 11.37007508 -28.12890625 10.5546875 C-18.78675541 6.74625965 -18.78675541 6.74625965 -14.53912354 5.02880859 C-12.75891998 4.30750115 -10.98089776 3.58079766 -9.20452881 2.85009766 C-8.30542786 2.48319824 -7.4063269 2.11629883 -6.47998047 1.73828125 C-5.66818329 1.40481689 -4.85638611 1.07135254 -4.01998901 0.7277832 C-2 0 -2 0 0 0 Z " fill="#618087" transform="translate(492,230)"/>
<path d="M0 0 C0 115.17 0 230.34 0 349 C-0.66 349.33 -1.32 349.66 -2 350 C-6.49157266 342.81838231 -6.55738208 336.73529938 -6.48101807 328.39599609 C-6.48276418 327.01552992 -6.48626983 325.63506504 -6.49137473 324.2546072 C-6.50029083 320.47578655 -6.48435791 316.69742202 -6.46426249 312.91865945 C-6.44695304 308.83832621 -6.45283665 304.75801771 -6.45587158 300.67765808 C-6.45796674 293.61301605 -6.44544028 286.54852204 -6.42292023 279.48391724 C-6.39038152 269.26976989 -6.3799913 259.05569396 -6.37496826 248.8415004 C-6.36621855 232.26880477 -6.33961174 215.69618799 -6.30175781 199.12353516 C-6.26502936 183.02685948 -6.23672167 166.93020523 -6.21972656 150.83349609 C-6.21867567 149.84092835 -6.21762477 148.84836061 -6.21654204 147.82571507 C-6.2113218 142.84618455 -6.20626699 137.86665388 -6.20129442 132.88712311 C-6.15984246 91.59136056 -6.08940282 50.2956848 -6 9 C-7.98 9.99 -7.98 9.99 -10 11 C-10.33 116.27 -10.66 221.54 -11 330 C-14.04312545 326.19609319 -15.99886043 323.30245008 -18 319 C-17.34 319 -16.68 319 -16 319 C-16.0077306 317.81558177 -16.0077306 317.81558177 -16.01561737 316.60723591 C-16.08431378 306.05717393 -16.1518392 295.5071047 -16.21875 284.95703125 C-16.22434346 284.07611966 -16.22993693 283.19520807 -16.23569989 282.28760219 C-16.37865649 259.74095301 -16.51204318 237.19428299 -16.62475586 214.64746094 C-16.62978792 213.64414679 -16.63481997 212.64083264 -16.64000452 211.60711503 C-16.68601823 202.42308166 -16.73164158 193.23904647 -16.77583122 184.05500412 C-16.88589554 161.22122845 -17.01796532 138.38809185 -17.221632 115.55494595 C-17.33342426 102.96285659 -17.419804 90.37077625 -17.483675 77.77835178 C-17.52495625 69.85272305 -17.59017005 61.92802873 -17.68642718 54.00287372 C-17.75674441 48.01577806 -17.78572303 42.02924597 -17.79846001 36.04171944 C-17.81027094 33.61826323 -17.83583718 31.19482854 -17.87626839 28.77168083 C-17.9290169 25.50263842 -17.93291628 22.23714199 -17.92407227 18.96777344 C-17.95126595 18.01977277 -17.97845963 17.0717721 -18.00647736 16.09504414 C-17.96925699 13.49377818 -17.8604706 11.45647644 -17 9 C-14.59855475 6.69030462 -12.00204071 5.3881322 -9 4 C-7.70305543 3.23808032 -6.41099591 2.46775721 -5.125 1.6875 C-2 0 -2 0 0 0 Z " fill="#5B7B81" transform="translate(479,254)"/>
<path d="M0 0 C2.03076196 1.81296891 2.03076196 1.81296891 2.52755594 4.08993709 C2.52603706 4.99101343 2.52451818 5.89208978 2.52295327 6.82047147 C2.53091747 7.8610131 2.53888166 8.90155473 2.54708719 9.97362792 C2.53543583 11.12050104 2.52378446 12.26737416 2.51178002 13.44900101 C2.51519772 14.66437934 2.51861542 15.87975767 2.52213669 17.13196564 C2.52759838 20.51179891 2.5150529 23.89071153 2.49502444 27.27043372 C2.47778601 30.91254189 2.48359357 34.5546205 2.48663354 38.19675797 C2.4887332 44.50902358 2.47615978 50.82112409 2.45368218 57.13334817 C2.42120437 66.25978936 2.4107595 75.38615054 2.40573022 84.51264326 C2.39697092 99.31893316 2.37033818 114.12513503 2.33251977 128.93137711 C2.29581607 143.31613825 2.26749629 157.70087549 2.25048852 172.08567399 C2.24943763 172.9720235 2.24838673 173.85837302 2.24730399 174.77158161 C2.24208393 179.21803872 2.23702907 183.664496 2.23205638 188.11095339 C2.1905746 225.0116874 2.12010894 261.91232131 2.03076196 298.81296891 C1.37076196 298.81296891 0.71076196 298.81296891 0.03076196 298.81296891 C-4.35344724 292.63287105 -4.54151817 287.63870273 -4.48821998 280.18944901 C-4.49572123 279.02373917 -4.50322248 277.85802932 -4.51095104 276.65699494 C-4.52770028 273.43457534 -4.5266722 270.21273375 -4.51804352 266.99030048 C-4.5130903 263.51044994 -4.53119393 260.03070913 -4.54646277 256.55089921 C-4.56975815 250.52631251 -4.57852407 244.50184613 -4.57735419 238.47721642 C-4.57568388 229.76669922 -4.5960306 221.05634224 -4.6217095 212.34586781 C-4.66277805 198.21292038 -4.68610024 184.08000181 -4.69824195 169.94700211 C-4.71007284 156.22008589 -4.7302742 142.49322397 -4.76171851 128.76633805 C-4.76365461 127.91987037 -4.76559071 127.07340269 -4.76758549 126.20128448 C-4.77735017 121.95470235 -4.78727926 117.70812064 -4.79729009 113.46153909 C-4.88009555 78.24537368 -4.93409179 43.02921291 -4.96923804 7.81296891 C-5.95923804 8.30796891 -5.95923804 8.30796891 -6.96923804 8.81296891 C-7.29923804 99.89296891 -7.62923804 190.97296891 -7.96923804 284.81296891 C-12.39658246 280.38562449 -14.20558878 278.26718643 -14.24885345 272.10802335 C-14.26592717 270.68655209 -14.26592717 270.68655209 -14.28334582 269.23636425 C-14.28570557 268.19834346 -14.28806533 267.16032268 -14.29049659 266.09084672 C-14.30067223 264.98572529 -14.31084787 263.88060386 -14.32133186 262.7419939 C-14.35281391 259.02566706 -14.36983928 255.30941807 -14.38671851 251.59299821 C-14.40093385 249.61118603 -14.41516178 247.62937378 -14.43039916 245.6475692 C-14.49698763 236.98224808 -14.54007297 228.31687983 -14.57679886 219.65138689 C-14.58639158 217.3951763 -14.59635784 215.13896762 -14.60640931 212.88275903 C-14.66834166 198.87024156 -14.72170757 184.85770746 -14.75524688 170.84509152 C-14.76314575 167.60074111 -14.77115177 164.35639098 -14.77929664 161.11204118 C-14.78131336 160.30568275 -14.78333008 159.49932433 -14.78540792 158.6685308 C-14.81943439 145.60105542 -14.90167018 132.53433669 -15.00334261 119.46723088 C-15.10687733 106.05043549 -15.16512818 92.63402943 -15.17964065 79.21683788 C-15.18896656 71.68365109 -15.21847697 64.15170457 -15.29912925 56.61891335 C-15.36772249 50.20470699 -15.39561439 43.79196447 -15.37028097 37.37741234 C-15.35862144 34.10435331 -15.37290108 30.83504008 -15.42662024 27.56231087 C-15.72618307 8.28304779 -15.72618307 8.28304779 -12.72480989 4.06343454 C-9.48468937 1.13157414 -4.12574662 -2.48694642 0 0 Z " fill="#5B7B82" transform="translate(455.9692380428314,266.18703109025955)"/>
<path d="M0 0 C3.93546775 0.73009676 7.25376359 1.84494965 10.921875 3.46875 C12.02917969 3.95730469 13.13648438 4.44585937 14.27734375 4.94921875 C15.99630859 5.71685547 15.99630859 5.71685547 17.75 6.5 C19.49216797 7.26763672 19.49216797 7.26763672 21.26953125 8.05078125 C29.85770089 11.85770089 29.85770089 11.85770089 31 13 C31.11817626 15.25607624 31.16476486 17.51590124 31.18513489 19.77497864 C31.19289513 20.49171601 31.20065537 21.20845339 31.20865077 21.94691008 C31.23352291 24.36668573 31.2511646 26.78646036 31.26879883 29.20629883 C31.28491512 30.93392788 31.30141366 32.6615534 31.31826782 34.38917542 C31.37178899 40.07840962 31.41460616 45.76770535 31.45703125 51.45703125 C31.472224 53.41240681 31.48748487 55.36778185 31.50281334 57.32315636 C31.57419552 66.50789564 31.64073793 75.69265449 31.70140249 84.87747079 C31.77168497 95.4938105 31.85858157 106.1098459 31.95958501 116.72593671 C32.03649108 124.92205152 32.09803428 133.11819327 32.14799136 141.31451625 C32.17823161 146.21421608 32.21517755 151.11365279 32.26828957 156.01316261 C32.31786665 160.62185463 32.34844739 165.23028104 32.36432266 169.8392086 C32.37346123 171.5323798 32.38950659 173.22552966 32.41290474 174.91856384 C32.4437662 177.22741261 32.44991043 179.53504582 32.44978333 181.84407043 C32.46442737 183.78341823 32.46442737 183.78341823 32.47936726 185.76194477 C32 189 32 189 30.09688854 191.4472456 C28 193 28 193 26 193 C25.98969254 191.78544128 25.97938507 190.57088257 25.96876526 189.31951904 C25.83667501 173.79631656 25.70090014 158.27314749 25.5625 142.75 C25.55147877 141.51358891 25.54045753 140.27717781 25.52910233 139.00329971 C25.24342582 107.0635076 24.93024209 75.124842 24.4375 43.1875 C24.4263982 42.46767441 24.4152964 41.74784882 24.40385818 41.00621033 C24.27482124 32.67071468 24.14087741 24.33530435 24 16 C21.54379149 14.82866942 19.08525083 13.66278278 16.625 12.5 C15.92632813 12.16613281 15.22765625 11.83226562 14.5078125 11.48828125 C10.91172001 9.64790602 10.91172001 9.64790602 7 9 C6.99945523 10.06736735 6.99891047 11.13473471 6.99834919 12.23444653 C6.9839623 38.18986473 6.94098108 64.14511506 6.86790943 90.10043621 C6.83323666 102.65218238 6.8079009 115.20381846 6.80444336 127.75561523 C6.80140666 138.69406832 6.78095569 149.63232547 6.73947543 160.57070285 C6.71811719 166.36408083 6.70555942 172.15718004 6.71384621 177.95059776 C6.72136832 183.40160876 6.70563814 188.85205408 6.67193985 194.30296135 C6.66368441 196.30525292 6.66398259 198.3076005 6.67340279 200.30988693 C6.68498299 203.04134307 6.66597097 205.77093238 6.63923645 208.50224304 C6.64990971 209.29699608 6.66058297 210.09174912 6.67157966 210.91058558 C6.59539488 215.07453712 6.17684197 216.78896162 3.46004772 220.03110981 C2.64823197 220.68084357 1.83641623 221.33057734 1 222 C0.82733269 200.56254538 0.66105664 179.12504482 0.5 157.6875 C0.49405146 156.89670028 0.48810292 156.10590056 0.48197412 155.29113722 C0.17523196 114.46494189 -0.10281862 73.64014605 -0.0625 32.8125 C-0.06164398 31.93898769 -0.06078796 31.06547539 -0.05990601 30.16549301 C-0.04925678 20.11030184 -0.03053836 10.05515167 0 0 Z " fill="#5E7E84" transform="translate(575,317)"/>
<path d="M0 0 C4.27067333 0.85413467 6.90598093 1.77069061 10.703125 3.6875 C11.7653125 4.22117187 12.8275 4.75484375 13.921875 5.3046875 C15.56929687 6.14386719 15.56929687 6.14386719 17.25 7 C18.920625 7.83917969 18.920625 7.83917969 20.625 8.6953125 C28.8458282 12.8458282 28.8458282 12.8458282 30 14 C30.8801614 20.82623087 30.91536173 27.79645013 31.11914062 34.66870117 C31.20557603 36.99294279 31.32797618 39.31615729 31.48828125 41.63647461 C32.75502904 60.37065453 32.75502904 60.37065453 28.16925049 66.41174316 C23.69045398 70.65678905 18.65302468 73.76183166 13.25772095 76.70843506 C10.16607312 78.47706105 7.58802929 80.57281108 4.875 82.875 C1.09623431 86 1.09623431 86 0 86 C0 57.62 0 29.24 0 0 Z " fill="#62878F" transform="translate(617,411)"/>
<path d="M0 0 C-0.33 65.34 -0.66 130.68 -1 198 C-7 193 -7 193 -7.7226696 189.49554729 C-7.7404303 188.12222184 -7.72515663 186.74822233 -7.68356323 185.37541199 C-7.68460623 184.61568268 -7.68564923 183.85595337 -7.68672383 183.07320195 C-7.68289952 180.53108801 -7.63605835 177.99161181 -7.58935547 175.44995117 C-7.57779917 173.62659131 -7.56889803 171.80321297 -7.56245422 169.97982788 C-7.5374362 165.03142743 -7.47524641 160.08410743 -7.40643454 155.13614821 C-7.34081728 149.96465055 -7.30930918 144.7929486 -7.27420044 139.62117004 C-7.2025304 129.82849646 -7.10013549 120.03639421 -6.98673165 110.24412471 C-6.85911573 99.09567629 -6.76570523 87.94702367 -6.67518401 76.79822195 C-6.48821384 53.86504306 -6.25702213 30.93249151 -6 8 C-13.92 11.96 -13.92 11.96 -22 16 C-22.1500771 25.20826783 -22.29565368 34.41660195 -22.4375 43.625 C-22.44852123 44.3403101 -22.45954247 45.05562019 -22.47089767 45.79260635 C-22.92312276 75.25661999 -23.25587415 104.72164875 -23.5625 134.1875 C-23.5736018 135.25418159 -23.5847036 136.32086319 -23.59614182 137.41986847 C-23.73322912 150.61322079 -23.86782384 163.80659759 -24 177 C-26.46242046 175.90455914 -26.46242046 175.90455914 -29 174 C-29.61523914 171.11645985 -29.61523914 171.11645985 -29.60127258 167.52705383 C-29.60554471 166.86703863 -29.60981683 166.20702342 -29.61421841 165.52700776 C-29.62246851 163.31069493 -29.59493469 161.09626594 -29.56762695 158.88012695 C-29.5662169 157.29349818 -29.56700763 155.70686613 -29.56983948 154.12023926 C-29.57127672 149.80828636 -29.54183768 145.49702596 -29.50696969 141.18523431 C-29.47575716 136.68091336 -29.47277949 132.17657732 -29.46684265 127.67216492 C-29.45128914 119.14040484 -29.41024041 110.60896431 -29.3600952 102.07734507 C-29.30424851 92.36529262 -29.27672702 82.65322507 -29.25161803 72.94105208 C-29.19932579 52.96052289 -29.11135433 32.98028156 -29 13 C-26.27937577 11.55199866 -23.55790948 10.10562012 -20.8359375 8.66015625 C-20.07015381 8.25236938 -19.30437012 7.84458252 -18.51538086 7.42443848 C-4.52360364 0 -4.52360364 0 0 0 Z " fill="#65858C" transform="translate(418,317)"/>
<path d="M0 0 C0.62422387 24.33643004 1.19672878 48.65405622 1 73 C-4.75541396 69.21042702 -10.35347498 65.3021143 -15.8359375 61.125 C-18.80208673 58.93385314 -18.80208673 58.93385314 -21.76000977 58.06005859 C-25.206662 56.73315744 -27.38496458 55.63256394 -30 53 C-31.55724256 46.87194777 -31.35953487 40.90879982 -31.1875 34.625 C-31.18053721 32.91798183 -31.17853218 31.21093579 -31.18164062 29.50390625 C-31.17846084 25.33342871 -31.10750833 21.16903995 -31 17 C-14.46843503 7.05689795 -14.46843503 7.05689795 -8.1875 3.4375 C-6.47626953 2.44556641 -6.47626953 2.44556641 -4.73046875 1.43359375 C-2 0 -2 0 0 0 Z " fill="#698E97" transform="translate(378,410)"/>
<path d="M0 0 C7.77115091 0.48831035 15.53448417 1.02354222 23.29296875 1.68359375 C60.53225946 4.85012818 97.62936106 6.40039283 135 7 C123.47220307 18.52779693 98.35902873 20.78390977 83 21 C81.68515625 21.02707031 80.3703125 21.05414062 79.015625 21.08203125 C75.00721494 21.14073786 71.00807322 21.07692262 67 21 C65.39511719 21.00966797 65.39511719 21.00966797 63.7578125 21.01953125 C41.91376763 20.45874281 19.22964697 10.8440077 0 1 C0 0.67 0 0.34 0 0 Z " fill="#731F2B" transform="translate(533,833)"/>
<path d="M0 0 C-4.32967579 3.95931656 -8.92352182 5.85479078 -14.3125 7.9375 C-15.19679688 8.28449951 -16.08109375 8.63149902 -16.9921875 8.98901367 C-24.88953879 12.04355575 -32.85754185 14.68490109 -41 17 C-42.07894531 17.30808594 -43.15789062 17.61617187 -44.26953125 17.93359375 C-58.01942979 21.62259092 -71.86904849 21.23368305 -86 21 C-87.78664063 20.97486328 -87.78664063 20.97486328 -89.609375 20.94921875 C-105.57759077 20.22527114 -120.74458794 14.9086983 -135 8 C-135 7.67 -135 7.34 -135 7 C-133.68136963 6.98541748 -132.36273926 6.97083496 -131.00415039 6.95581055 C-90.92261496 6.48156868 -50.81633549 5.38333832 -10.98828125 0.55078125 C-7.3010064 0.10977153 -3.7202785 -0.13309344 0 0 Z " fill="#721F2B" transform="translate(480,832)"/>
</svg>